HIERARCHY
ROOT Hips
{
  OFFSET 52.1248 91.6466 4.34269
  CHANNELS 6 Xposition Yposition Zposition Zrotation Xrotation Yrotation
  JOINT spine
  {
    OFFSET 0 6.84637 0.3937
    CHANNELS 3 Zrotation Xrotation Yrotation
    JOINT spine1
    {
      OFFSET 0 9.49621 0
      CHANNELS 3 Zrotation Xrotation Yrotation
      JOINT spine2
      {
        OFFSET 0 9.09909 0
        CHANNELS 3 Zrotation Xrotation Yrotation
        JOINT Neck
        {
          OFFSET 0 23.3612 1.11378
          CHANNELS 3 Zrotation Xrotation Yrotation
          JOINT Head
          {
            OFFSET 0 7.05802 0
            CHANNELS 3 Zrotation Xrotation Yrotation
            End Site
            {
              OFFSET 0 17.0844 -5.63419
            }
          }
        }
        JOINT RightShoulder
        {
          OFFSET -3.83136 9.82631 -0.533491
          CHANNELS 3 Zrotation Xrotation Yrotation
          JOINT RightArm
          {
            OFFSET 0 12.8881 0
            CHANNELS 3 Zrotation Xrotation Yrotation
            JOINT RightArmRoll
            {
              OFFSET 0 6.50617 0
              CHANNELS 3 Zrotation Xrotation Yrotation
              JOINT RightForeArm
              {
                OFFSET 0 18.9501 0
                CHANNELS 3 Zrotation Xrotation Yrotation
                JOINT RightForeArmRoll
                {
                  OFFSET 0 7.30092 0
                  CHANNELS 3 Zrotation Xrotation Yrotation
                  JOINT RightHand
                  {
                    OFFSET 0 14.6514 0
                    CHANNELS 3 Zrotation Xrotation Yrotation
                    End Site
                    {
                      OFFSET 0 0 0
                    }
                  }
                }
              }
            }
          }
        }
        JOINT LeftShoulder
        {
          OFFSET 3.83136 9.82631 -0.533491
          CHANNELS 3 Zrotation Xrotation Yrotation
          JOINT LeftArm
          {
            OFFSET 0 12.8881 0
            CHANNELS 3 Zrotation Xrotation Yrotation
            JOINT LeftArmRoll
            {
              OFFSET 0 6.50617 0
              CHANNELS 3 Zrotation Xrotation Yrotation
              JOINT LeftForeArm
              {
                OFFSET 0 18.9501 0
                CHANNELS 3 Zrotation Xrotation Yrotation
                JOINT LeftForeArmRoll
                {
                  OFFSET 0 7.30092 0
                  CHANNELS 3 Zrotation Xrotation Yrotation
                  JOINT LeftHand
                  {
                    OFFSET 0 14.6514 0
                    CHANNELS 3 Zrotation Xrotation Yrotation
                    End Site
                    {
                      OFFSET 0 0 0
                    }
                  }
                }
              }
            }
          }
        }
      }
    }
  }
  JOINT RightUpLeg
  {
    OFFSET -6.06837 -1.11278 -0.933477
    CHANNELS 3 Zrotation Xrotation Yrotation
    JOINT RightUpLegRoll
    {
      OFFSET 0 17.1796 0
      CHANNELS 3 Zrotation Xrotation Yrotation
      JOINT RightLeg
      {
        OFFSET 0 -21.2743 0
        CHANNELS 3 Zrotation Xrotation Yrotation
        JOINT RightLegRoll
        {
          OFFSET 0 21.3439 0
          CHANNELS 3 Zrotation Xrotation Yrotation
          JOINT RightFoot
          {
            OFFSET 0 17.7652 0
            CHANNELS 3 Zrotation Xrotation Yrotation
            JOINT RightToeBase
            {
              OFFSET 0 14.8508 0
              CHANNELS 3 Zrotation Xrotation Yrotation
              End Site
              {
                OFFSET 0.0062947 7.19214 -0.829005
              }
            }
          }
        }
      }
    }
  }
  JOINT LeftUpLeg
  {
    OFFSET 6.06837 -1.11278 -0.933477
    CHANNELS 3 Zrotation Xrotation Yrotation
    JOINT LeftUpLegRoll
    {
      OFFSET 0 17.1797 0
      CHANNELS 3 Zrotation Xrotation Yrotation
      JOINT LeftLeg
      {
        OFFSET 0 21.2742 0
        CHANNELS 3 Zrotation Xrotation Yrotation
        JOINT LeftLegRoll
        {
          OFFSET 0 21.5412 0
          CHANNELS 3 Zrotation Xrotation Yrotation
          JOINT LeftFoot
          {
            OFFSET 0 17.5679 0
            CHANNELS 3 Zrotation Xrotation Yrotation
            JOINT LeftToeBase
            {
              OFFSET 0 14.8508 0
              CHANNELS 3 Zrotation Xrotation Yrotation
              End Site
              {
                OFFSET -0.0282102 7.19213 -0.829005
              }
            }
          }
        }
      }
    }
  }
}
MOTION
Frames: 4
Frame Time: 0.00208333
53.4901 91.6792 5.65061 0.661747 -2.40687 -3.76475 0.136137 -1.63046 -0.15418 0.265479 0.741535 -0.307443 0.269312 2.38659 -0.312019 -6.60256 28.5567 3.23068 3.69447 -11.6212 1.10333 71.2028 6.40499 1.62992 101.477 -0.598643 13.1751 -4.59972e-007 -3.53166e-007 -7.5431e-006 11.9501 19.8554 -3.32767 3.19413e-006 -3.35533e-006 -3 8.0289 -4.95155 0.697716 -75.6988 6.1786 -0.745183 -97.7061 6.8625 -21.0513 4.91522e-006 1.65825e-006 2.7095e-006 -14.6816 4.10554 0.826688 2.70094e-005 -3.93145e-006 3 -8.02896 -4.95146 -0.697707 173.502 1.87006 2.67682 180 7.01544e-015 178.911 177.188 4.93269 179.991 -4.37229e-006 4.08516e-006 0.037766 -18.5177 67.7159 19.3045 8.1365 25.2327 -3.48774 -176.325 -3.65334 1.55395 4.54188e-006 -4.6773e-006 -1.21652 0.258216 -6.22028 0.236551 5.06894e-006 -2.58803e-006 -0.0883576 19.0543 68.3281 -19.7972 -8.1365 25.2327 3.48774 
53.499 91.6789 5.65091 0.649971 -2.41786 -3.76653 0.137161 -1.62611 -0.154833 0.267789 0.750225 -0.309921 0.271654 2.39528 -0.314537 -6.53463 28.5595 3.2036 3.64697 -11.6021 1.09568 71.213 6.35284 1.6034 101.505 -0.59402 13.2398 -4.59972e-007 -3.53166e-007 -7.5431e-006 11.8939 19.8873 -3.3251 3.19413e-006 -3.35533e-006 -3 8.0289 -4.95155 0.697716 -75.6492 6.18485 -0.756309 -97.7732 6.85011 -21.0434 4.91522e-006 1.65825e-006 2.7095e-006 -14.6695 4.16494 0.836881 2.70094e-005 -3.93145e-006 3 -8.02896 -4.95146 -0.697707 173.515 1.85698 2.66675 180 7.01544e-015 178.911 177.193 4.93036 179.99 -4.37229e-006 4.08516e-006 0.037766 -18.5183 67.7167 19.3052 8.1365 25.2327 -3.48774 -176.313 -3.63811 1.54864 4.54188e-006 -4.6773e-006 -1.21652 0.262175 -6.27404 0.238296 5.06894e-006 -2.58803e-006 -0.091141 19.0772 68.353 -19.822 -8.1365 25.2327 3.48774 
53.4958 91.6788 5.63836 0.637917 -2.42885 -3.76821 0.138175 -1.62171 -0.155461 0.270088 0.759019 -0.312388 0.273986 2.40407 -0.317043 -6.46545 28.5605 3.17626 3.59857 -11.5813 1.08817 71.2231 6.29978 1.57647 101.535 -0.588812 13.3064 -4.59972e-007 -3.53166e-007 -7.5431e-006 11.8361 19.9173 -3.32206 3.19413e-006 -3.35533e-006 -3 8.0289 -4.95155 0.697716 -75.5981 6.19058 -0.767449 -97.8421 6.8369 -21.0356 4.91522e-006 1.65825e-006 2.7095e-006 -14.6571 4.22529 0.847253 2.70094e-005 -3.93145e-006 3 -8.02896 -4.95146 -0.697707 173.529 1.84378 2.65638 180 7.01544e-015 178.911 177.199 4.92798 179.99 -4.37229e-006 4.08516e-006 0.037766 -18.519 67.7176 19.306 8.1365 25.2327 -3.48774 -176.3 -3.6216 1.54333 4.54188e-006 -4.6773e-006 -1.21652 0.266486 -6.33052 0.240156 5.06894e-006 -2.58803e-006 -0.0940705 19.1012 68.379 -19.848 -8.1365 25.2327 3.48774 
53.4928 91.6812 5.63868 0.625669 -2.43984 -3.76981 0.139183 -1.61727 -0.156073 0.27238 0.767885 -0.314847 0.27631 2.41293 -0.319542 -6.3954 28.5602 3.14875 3.54953 -11.5592 1.08075 71.2331 6.24608 1.54926 101.565 -0.583194 13.3743 -4.59972e-007 -3.53166e-007 -7.5431e-006 11.777 19.9459 -3.31868 3.19413e-006 -3.35533e-006 -3 8.0289 -4.95155 0.697716 -75.546 6.19592 -0.778601 -97.9122 6.82312 -21.0278 4.91522e-006 1.65825e-006 2.7095e-006 -14.6446 4.28631 0.857751 2.70094e-005 -3.93145e-006 3 -8.02896 -4.95146 -0.697707 173.542 1.83048 2.64579 180 7.01544e-015 178.911 177.205 4.92555 179.989 -4.37229e-006 4.08516e-006 0.037766 -18.5197 67.7184 19.3067 8.1365 25.2327 -3.48774 -176.288 -3.6042 1.53801 4.54188e-006 -4.6773e-006 -1.21652 0.271045 -6.38892 0.242097 5.06894e-006 -2.58803e-006 -0.0971022 19.1261 68.406 -19.875 -8.1365 25.2327 3.48774 
